<?xml version="1.0" encoding="UTF-8"?>
<svg xmlns="http://www.w3.org/2000/svg" xmlns:xlink="http://www.w3.org/1999/xlink" width="20px" height="20px" viewBox="0 0 20 20" version="1.1">
<g id="surface1">
<path style=" stroke:none;fill-rule:evenodd;fill:rgb(10.196078%,11.372549%,12.941176%);fill-opacity:1;" d="M 4.648438 17.027344 L 5.503906 17.050781 C 5.71875 17.054688 5.917969 17.167969 6.027344 17.347656 L 6.476562 18.0625 C 6.816406 18.609375 7.28125 19.066406 7.835938 19.398438 C 9.78125 20.574219 12.328125 19.976562 13.523438 18.0625 L 13.972656 17.347656 C 14.082031 17.167969 14.28125 17.054688 14.496094 17.050781 L 15.351562 17.027344 C 16 17.011719 16.636719 16.84375 17.207031 16.539062 C 19.214844 15.472656 19.960938 13.007812 18.875 11.035156 L 18.46875 10.296875 C 18.363281 10.113281 18.363281 9.886719 18.46875 9.703125 L 18.875 8.964844 C 19.183594 8.402344 19.355469 7.777344 19.371094 7.140625 C 19.433594 4.898438 17.632812 3.03125 15.351562 2.972656 L 14.496094 2.949219 C 14.28125 2.945312 14.082031 2.832031 13.972656 2.652344 L 13.523438 1.9375 C 13.183594 1.390625 12.71875 0.933594 12.164062 0.601562 C 10.21875 -0.574219 7.671875 0.0234375 6.476562 1.9375 L 6.027344 2.652344 C 5.917969 2.832031 5.71875 2.945312 5.503906 2.949219 L 4.648438 2.972656 C 4 2.988281 3.363281 3.15625 2.792969 3.460938 C 0.785156 4.527344 0.0390625 6.992188 1.125 8.964844 L 1.53125 9.703125 C 1.636719 9.886719 1.636719 10.113281 1.53125 10.296875 L 1.125 11.035156 C 0.816406 11.597656 0.644531 12.222656 0.628906 12.859375 C 0.566406 15.101562 2.367188 16.96875 4.648438 17.027344 Z M 8.203125 16.039062 C 7.636719 15.136719 6.648438 14.578125 5.574219 14.546875 L 4.71875 14.527344 C 3.84375 14.503906 3.152344 13.785156 3.175781 12.925781 C 3.183594 12.683594 3.246094 12.445312 3.367188 12.226562 L 3.773438 11.488281 C 4.285156 10.5625 4.285156 9.4375 3.773438 8.511719 L 3.367188 7.773438 C 2.949219 7.015625 3.234375 6.070312 4.003906 5.660156 C 4.222656 5.542969 4.46875 5.480469 4.71875 5.472656 L 5.574219 5.453125 C 6.648438 5.421875 7.636719 4.863281 8.203125 3.960938 L 8.648438 3.246094 C 9.105469 2.511719 10.082031 2.285156 10.828125 2.734375 C 11.042969 2.863281 11.21875 3.039062 11.351562 3.246094 L 11.796875 3.960938 C 12.363281 4.863281 13.351562 5.421875 14.425781 5.453125 L 15.28125 5.472656 C 16.15625 5.496094 16.847656 6.214844 16.824219 7.074219 C 16.816406 7.316406 16.753906 7.554688 16.632812 7.773438 L 16.226562 8.511719 C 15.714844 9.4375 15.714844 10.5625 16.226562 11.488281 L 16.632812 12.226562 C 17.050781 12.984375 16.765625 13.929688 15.996094 14.339844 C 15.777344 14.453125 15.53125 14.519531 15.28125 14.527344 L 14.425781 14.546875 C 13.351562 14.578125 12.363281 15.136719 11.796875 16.039062 L 11.351562 16.753906 C 10.894531 17.488281 9.917969 17.714844 9.171875 17.265625 C 8.957031 17.136719 8.78125 16.960938 8.648438 16.753906 Z M 10 13.75 C 7.929688 13.75 6.25 12.070312 6.25 10 C 6.25 7.929688 7.929688 6.25 10 6.25 C 12.070312 6.25 13.75 7.929688 13.75 10 C 13.75 12.070312 12.070312 13.75 10 13.75 Z M 11.25 10 C 11.25 10.691406 10.691406 11.25 10 11.25 C 9.308594 11.25 8.75 10.691406 8.75 10 C 8.75 9.308594 9.308594 8.75 10 8.75 C 10.691406 8.75 11.25 9.308594 11.25 10 Z M 11.25 10 "/>
</g>
</svg>
